<?xml version="1.0" encoding="us-ascii" standalone="no"?><svg xmlns="http://www.w3.org/2000/svg" xmlns:xlink="http://www.w3.org/1999/xlink" contentStyleType="text/css" height="885px" preserveAspectRatio="none" style="width:621px;height:885px;background:#FFFFFF;" version="1.1" viewBox="0 0 621 885" width="621px" zoomAndPan="magnify"><defs/><g><ellipse cx="315.5" cy="20" fill="#222222" rx="10" ry="10" style="stroke:#222222;stroke-width:1.0;"/><polygon fill="#FFCC88" points="194.5,50,436.5,50,448.5,75.6094,436.5,101.2188,194.5,101.2188,182.5,75.6094,194.5,50" style="stroke:#181818;stroke-width:0.5;"/><text fill="#000000" font-family="sans-serif" font-size="11" lengthAdjust="spacing" textLength="4" x="194.5" y="60.2104">&#160;</text><text fill="#000000" font-family="sans-serif" font-size="11" lengthAdjust="spacing" textLength="226" x="202.5" y="73.0151">The skip-ci has already been completed</text><text fill="#000000" font-family="sans-serif" font-size="11" lengthAdjust="spacing" textLength="138" x="198.5" y="85.8198">= the ci-skip file exists ?</text><text fill="#000000" font-family="sans-serif" font-size="11" lengthAdjust="spacing" textLength="4" x="194.5" y="98.6245">&#160;</text><text fill="#000000" font-family="sans-serif" font-size="11" lengthAdjust="spacing" textLength="20" x="162.5" y="73.0151">yes</text><text fill="#000000" font-family="sans-serif" font-size="11" lengthAdjust="spacing" textLength="14" x="448.5" y="73.0151">no</text><polygon fill="#FFCC88" points="85,111.2188,230,111.2188,242,130.4258,230,149.6328,85,149.6328,73,130.4258,85,111.2188" style="stroke:#181818;stroke-width:0.5;"/><text fill="#000000" font-family="sans-serif" font-size="11" lengthAdjust="spacing" textLength="4" x="85" y="121.4292">&#160;</text><text fill="#000000" font-family="sans-serif" font-size="11" lengthAdjust="spacing" textLength="129" x="93" y="134.2339">The skip-ci content is ?</text><text fill="#000000" font-family="sans-serif" font-size="11" lengthAdjust="spacing" textLength="4" x="85" y="147.0386">&#160;</text><text fill="#000000" font-family="sans-serif" font-size="11" lengthAdjust="spacing" textLength="23" x="50" y="127.8315">true</text><text fill="#000000" font-family="sans-serif" font-size="11" lengthAdjust="spacing" textLength="27" x="242" y="127.8315">false</text><rect fill="#98FB98" height="33.9688" rx="12.5" ry="12.5" style="stroke:#181818;stroke-width:0.5;" width="104" x="11" y="159.6328"/><text fill="#000000" font-family="sans-serif" font-size="12" lengthAdjust="spacing" textLength="80" x="21" y="180.7715">exit 0 silently</text><ellipse cx="63" cy="231.1094" fill="none" rx="11" ry="11" style="stroke:#222222;stroke-width:1.0;"/><ellipse cx="63" cy="231.1094" fill="#222222" rx="6" ry="6" style="stroke:#111111;stroke-width:1.0;"/><rect fill="#FFFF00" height="33.9688" rx="12.5" ry="12.5" style="stroke:#181818;stroke-width:0.5;" width="104" x="200" y="159.6328"/><text fill="#000000" font-family="sans-serif" font-size="12" lengthAdjust="spacing" textLength="80" x="210" y="180.7715">exit 3 silently</text><ellipse cx="252" cy="231.1094" fill="none" rx="11" ry="11" style="stroke:#222222;stroke-width:1.0;"/><ellipse cx="252" cy="231.1094" fill="#222222" rx="6" ry="6" style="stroke:#111111;stroke-width:1.0;"/><rect fill="#CCCCFF" height="75.875" rx="12.5" ry="12.5" style="stroke:#181818;stroke-width:0.5;" width="199" x="374" y="111.2188"/><text fill="#000000" font-family="sans-serif" font-size="12" lengthAdjust="spacing" textLength="157" x="384" y="132.3574">Get the "git ls-tree" of the</text><text fill="#000000" font-family="sans-serif" font-size="12" lengthAdjust="spacing" textLength="179" x="384" y="146.3262">"$SKIP_IF_TREE_OK_IN_PAST"</text><text fill="#000000" font-family="sans-serif" font-size="12" lengthAdjust="spacing" textLength="149" x="384" y="160.2949">files of the current HEAD</text><text fill="#000000" font-family="sans-serif" font-size="12" lengthAdjust="spacing" textLength="136" x="388" y="174.2637">=HEAD_PARTIAL_TREE</text><rect fill="#FFCCCC" height="47.9375" rx="12.5" ry="12.5" style="stroke:#181818;stroke-width:0.5;" width="245" x="351" y="213.6016"/><text fill="#000000" font-family="sans-serif" font-size="12" lengthAdjust="spacing" textLength="225" x="361" y="234.7402">Get last successful jobs of the project</text><text fill="#000000" font-family="sans-serif" font-size="12" lengthAdjust="spacing" textLength="114" x="361" y="248.709">from the Gitlab API</text><rect fill="#FFCCCC" height="33.9688" rx="12.5" ry="12.5" style="stroke:#181818;stroke-width:0.5;" width="257" x="345" y="281.5391"/><text fill="#000000" font-family="sans-serif" font-size="12" lengthAdjust="spacing" textLength="237" x="355" y="302.6777">Filter jobs : keep current job name only</text><rect fill="#CCCCFF" height="75.875" rx="12.5" ry="12.5" style="stroke:#181818;stroke-width:0.5;" width="209" x="369" y="405.6323"/><text fill="#000000" font-family="sans-serif" font-size="12" lengthAdjust="spacing" textLength="157" x="379" y="426.771">Get the "git ls-tree" of the</text><text fill="#000000" font-family="sans-serif" font-size="12" lengthAdjust="spacing" textLength="179" x="379" y="440.7397">"$SKIP_IF_TREE_OK_IN_PAST"</text><text fill="#000000" font-family="sans-serif" font-size="12" lengthAdjust="spacing" textLength="189" x="379" y="454.7085">files of the checked job commit</text><text fill="#000000" font-family="sans-serif" font-size="12" lengthAdjust="spacing" textLength="123" x="383" y="468.6772">=JOB_PARTIAL_TREE</text><rect fill="#98FB98" height="61.9063" rx="12.5" ry="12.5" style="stroke:#181818;stroke-width:0.5;" width="157" x="395" y="602.7378"/><text fill="#000000" font-family="sans-serif" font-size="12" lengthAdjust="spacing" textLength="79" x="405" y="623.8765">&#9989; job found :</text><text fill="#000000" font-family="sans-serif" font-size="12" lengthAdjust="spacing" textLength="137" x="405" y="637.8452">write true in ci-skip file</text><text fill="#000000" font-family="sans-serif" font-size="12" lengthAdjust="spacing" textLength="124" x="405" y="651.814">and exit with code 0</text><ellipse cx="473.5" cy="695.644" fill="none" rx="11" ry="11" style="stroke:#222222;stroke-width:1.0;"/><ellipse cx="473.5" cy="695.644" fill="#222222" rx="6" ry="6" style="stroke:#111111;stroke-width:1.0;"/><polygon fill="#FFCC88" points="378,501.5073,569,501.5073,581,539.9214,569,578.3354,378,578.3354,366,539.9214,378,501.5073" style="stroke:#181818;stroke-width:0.5;"/><text fill="#000000" font-family="sans-serif" font-size="11" lengthAdjust="spacing" textLength="23" x="477.5" y="588.5459">true</text><text fill="#000000" font-family="sans-serif" font-size="11" lengthAdjust="spacing" textLength="4" x="378" y="511.7178">&#160;</text><text fill="#000000" font-family="sans-serif" font-size="11" lengthAdjust="spacing" textLength="156" x="386" y="524.5225">this partial tree is equals to</text><text fill="#000000" font-family="sans-serif" font-size="11" lengthAdjust="spacing" textLength="175" x="386" y="537.3271">the current HEAD partial tree ?</text><text fill="#000000" font-family="sans-serif" font-size="11" lengthAdjust="spacing" textLength="119" x="394" y="550.1318">HEAD_PARTIAL_TREE</text><text fill="#000000" font-family="sans-serif" font-size="11" lengthAdjust="spacing" textLength="140" x="410" y="562.9365">== JOB_PARTIAL_TREE ?</text><text fill="#000000" font-family="sans-serif" font-size="11" lengthAdjust="spacing" textLength="4" x="378" y="575.7412">&#160;</text><text fill="#000000" font-family="sans-serif" font-size="11" lengthAdjust="spacing" textLength="14" x="581" y="537.3271">no</text><polygon fill="#FFCC88" points="370,335.5078,577,335.5078,589,354.7148,577,373.9219,370,373.9219,358,354.7148,370,335.5078" style="stroke:#181818;stroke-width:0.5;"/><text fill="#000000" font-family="sans-serif" font-size="11" lengthAdjust="spacing" textLength="20" x="477.5" y="384.1323">yes</text><text fill="#000000" font-family="sans-serif" font-size="11" lengthAdjust="spacing" textLength="4" x="370" y="345.7183">&#160;</text><text fill="#000000" font-family="sans-serif" font-size="11" lengthAdjust="spacing" textLength="191" x="378" y="358.5229">There are still other jobs to check</text><text fill="#000000" font-family="sans-serif" font-size="11" lengthAdjust="spacing" textLength="4" x="370" y="371.3276">&#160;</text><text fill="#000000" font-family="sans-serif" font-size="11" lengthAdjust="spacing" textLength="14" x="344" y="352.1206">no</text><rect fill="#FFFF00" height="61.9063" rx="12.5" ry="12.5" style="stroke:#181818;stroke-width:0.5;" width="159" x="394" y="770.644"/><text fill="#000000" font-family="sans-serif" font-size="12" lengthAdjust="spacing" textLength="102" x="404" y="791.7827">&#10060; job not found :</text><text fill="#000000" font-family="sans-serif" font-size="12" lengthAdjust="spacing" textLength="139" x="404" y="805.7515">write false in ci-skip file</text><text fill="#000000" font-family="sans-serif" font-size="12" lengthAdjust="spacing" textLength="124" x="404" y="819.7202">and exit with code 1</text><ellipse cx="473.5" cy="863.5503" fill="none" rx="11" ry="11" style="stroke:#222222;stroke-width:1.0;"/><ellipse cx="473.5" cy="863.5503" fill="#222222" rx="6" ry="6" style="stroke:#111111;stroke-width:1.0;"/><line style="stroke:#181818;stroke-width:1.0;" x1="63" x2="63" y1="193.6016" y2="220.1094"/><polygon fill="#181818" points="59,210.1094,63,220.1094,67,210.1094,63,214.1094" style="stroke:#181818;stroke-width:1.0;"/><line style="stroke:#181818;stroke-width:1.0;" x1="252" x2="252" y1="193.6016" y2="220.1094"/><polygon fill="#181818" points="248,210.1094,252,220.1094,256,210.1094,252,214.1094" style="stroke:#181818;stroke-width:1.0;"/><line style="stroke:#181818;stroke-width:1.0;" x1="73" x2="63" y1="130.4258" y2="130.4258"/><line style="stroke:#181818;stroke-width:1.0;" x1="63" x2="63" y1="130.4258" y2="159.6328"/><polygon fill="#181818" points="59,149.6328,63,159.6328,67,149.6328,63,153.6328" style="stroke:#181818;stroke-width:1.0;"/><line style="stroke:#181818;stroke-width:1.0;" x1="242" x2="252" y1="130.4258" y2="130.4258"/><line style="stroke:#181818;stroke-width:1.0;" x1="252" x2="252" y1="130.4258" y2="159.6328"/><polygon fill="#181818" points="248,149.6328,252,159.6328,256,149.6328,252,153.6328" style="stroke:#181818;stroke-width:1.0;"/><line style="stroke:#181818;stroke-width:1.0;" x1="473.5" x2="473.5" y1="187.0938" y2="213.6016"/><polygon fill="#181818" points="469.5,203.6016,473.5,213.6016,477.5,203.6016,473.5,207.6016" style="stroke:#181818;stroke-width:1.0;"/><line style="stroke:#181818;stroke-width:1.0;" x1="473.5" x2="473.5" y1="261.5391" y2="281.5391"/><polygon fill="#181818" points="469.5,271.5391,473.5,281.5391,477.5,271.5391,473.5,275.5391" style="stroke:#181818;stroke-width:1.0;"/><line style="stroke:#181818;stroke-width:1.0;" x1="473.5" x2="473.5" y1="664.644" y2="684.644"/><polygon fill="#181818" points="469.5,674.644,473.5,684.644,477.5,674.644,473.5,678.644" style="stroke:#181818;stroke-width:1.0;"/><line style="stroke:#181818;stroke-width:1.0;" x1="473.5" x2="473.5" y1="578.3354" y2="602.7378"/><polygon fill="#181818" points="469.5,592.7378,473.5,602.7378,477.5,592.7378,473.5,596.7378" style="stroke:#181818;stroke-width:1.0;"/><line style="stroke:#181818;stroke-width:1.0;" x1="581" x2="605" y1="539.9214" y2="539.9214"/><line style="stroke:#181818;stroke-width:1.0;" x1="605" x2="605" y1="354.7148" y2="539.9214"/><line style="stroke:#181818;stroke-width:1.0;" x1="605" x2="589" y1="354.7148" y2="354.7148"/><polygon fill="#181818" points="599,350.7148,589,354.7148,599,358.7148,595,354.7148" style="stroke:#181818;stroke-width:1.0;"/><line style="stroke:#181818;stroke-width:1.0;" x1="473.5" x2="473.5" y1="481.5073" y2="501.5073"/><polygon fill="#181818" points="469.5,491.5073,473.5,501.5073,477.5,491.5073,473.5,495.5073" style="stroke:#181818;stroke-width:1.0;"/><line style="stroke:#181818;stroke-width:1.0;" x1="473.5" x2="473.5" y1="373.9219" y2="405.6323"/><polygon fill="#181818" points="469.5,395.6323,473.5,405.6323,477.5,395.6323,473.5,399.6323" style="stroke:#181818;stroke-width:1.0;"/><line style="stroke:#181818;stroke-width:1.0;" x1="358" x2="346" y1="354.7148" y2="354.7148"/><polygon fill="#181818" points="342,545.3335,346,555.3335,350,545.3335,346,549.3335" style="stroke:#181818;stroke-width:1.0;"/><line style="stroke:#181818;stroke-width:1.0;" x1="346" x2="346" y1="354.7148" y2="750.644"/><line style="stroke:#181818;stroke-width:1.0;" x1="346" x2="473.5" y1="750.644" y2="750.644"/><line style="stroke:#181818;stroke-width:1.0;" x1="473.5" x2="473.5" y1="750.644" y2="770.644"/><polygon fill="#181818" points="469.5,760.644,473.5,770.644,477.5,760.644,473.5,764.644" style="stroke:#181818;stroke-width:1.0;"/><line style="stroke:#181818;stroke-width:1.0;" x1="473.5" x2="473.5" y1="315.5078" y2="335.5078"/><polygon fill="#181818" points="469.5,325.5078,473.5,335.5078,477.5,325.5078,473.5,329.5078" style="stroke:#181818;stroke-width:1.0;"/><line style="stroke:#181818;stroke-width:1.0;" x1="473.5" x2="473.5" y1="832.5503" y2="852.5503"/><polygon fill="#181818" points="469.5,842.5503,473.5,852.5503,477.5,842.5503,473.5,846.5503" style="stroke:#181818;stroke-width:1.0;"/><line style="stroke:#181818;stroke-width:1.0;" x1="182.5" x2="157.5" y1="75.6094" y2="75.6094"/><line style="stroke:#181818;stroke-width:1.0;" x1="157.5" x2="157.5" y1="75.6094" y2="111.2188"/><polygon fill="#181818" points="153.5,101.2188,157.5,111.2188,161.5,101.2188,157.5,105.2188" style="stroke:#181818;stroke-width:1.0;"/><line style="stroke:#181818;stroke-width:1.0;" x1="448.5" x2="473.5" y1="75.6094" y2="75.6094"/><line style="stroke:#181818;stroke-width:1.0;" x1="473.5" x2="473.5" y1="75.6094" y2="111.2188"/><polygon fill="#181818" points="469.5,101.2188,473.5,111.2188,477.5,101.2188,473.5,105.2188" style="stroke:#181818;stroke-width:1.0;"/><line style="stroke:#181818;stroke-width:1.0;" x1="315.5" x2="315.5" y1="30" y2="50"/><polygon fill="#181818" points="311.5,40,315.5,50,319.5,40,315.5,44" style="stroke:#181818;stroke-width:1.0;"/></g></svg>
