<?xml version="1.0" encoding="us-ascii" standalone="no"?><svg xmlns="http://www.w3.org/2000/svg" xmlns:xlink="http://www.w3.org/1999/xlink" contentStyleType="text/css" height="1007px" preserveAspectRatio="none" style="width:649px;height:1007px;background:#FFFFFF;" version="1.1" viewBox="0 0 649 1007" width="649px" zoomAndPan="magnify"><defs/><g><ellipse cx="321.5" cy="20" fill="#222222" rx="10" ry="10" style="stroke:#222222;stroke-width:1.0;"/><polygon fill="#FFCC88" points="200.5,50,442.5,50,454.5,75.6094,442.5,101.2188,200.5,101.2188,188.5,75.6094,200.5,50" style="stroke:#181818;stroke-width:0.5;"/><text fill="#000000" font-family="sans-serif" font-size="11" lengthAdjust="spacing" textLength="4" x="200.5" y="60.2104">&#160;</text><text fill="#000000" font-family="sans-serif" font-size="11" lengthAdjust="spacing" textLength="226" x="208.5" y="73.0151">The skip-ci has already been completed</text><text fill="#000000" font-family="sans-serif" font-size="11" lengthAdjust="spacing" textLength="138" x="204.5" y="85.8198">= the ci-skip file exists ?</text><text fill="#000000" font-family="sans-serif" font-size="11" lengthAdjust="spacing" textLength="4" x="200.5" y="98.6245">&#160;</text><text fill="#000000" font-family="sans-serif" font-size="11" lengthAdjust="spacing" textLength="20" x="168.5" y="73.0151">yes</text><text fill="#000000" font-family="sans-serif" font-size="11" lengthAdjust="spacing" textLength="14" x="454.5" y="73.0151">no</text><polygon fill="#FFCC88" points="85,111.2188,230,111.2188,242,130.4258,230,149.6328,85,149.6328,73,130.4258,85,111.2188" style="stroke:#181818;stroke-width:0.5;"/><text fill="#000000" font-family="sans-serif" font-size="11" lengthAdjust="spacing" textLength="4" x="85" y="121.4292">&#160;</text><text fill="#000000" font-family="sans-serif" font-size="11" lengthAdjust="spacing" textLength="129" x="93" y="134.2339">The skip-ci content is ?</text><text fill="#000000" font-family="sans-serif" font-size="11" lengthAdjust="spacing" textLength="4" x="85" y="147.0386">&#160;</text><text fill="#000000" font-family="sans-serif" font-size="11" lengthAdjust="spacing" textLength="23" x="50" y="127.8315">true</text><text fill="#000000" font-family="sans-serif" font-size="11" lengthAdjust="spacing" textLength="27" x="242" y="127.8315">false</text><rect fill="#98FB98" height="33.9688" rx="12.5" ry="12.5" style="stroke:#181818;stroke-width:0.5;" width="104" x="11" y="159.6328"/><text fill="#000000" font-family="sans-serif" font-size="12" lengthAdjust="spacing" textLength="80" x="21" y="180.7715">exit 0 silently</text><ellipse cx="63" cy="231.1094" fill="none" rx="11" ry="11" style="stroke:#222222;stroke-width:1.0;"/><ellipse cx="63" cy="231.1094" fill="#222222" rx="6" ry="6" style="stroke:#111111;stroke-width:1.0;"/><rect fill="#FFFF00" height="33.9688" rx="12.5" ry="12.5" style="stroke:#181818;stroke-width:0.5;" width="104" x="200" y="159.6328"/><text fill="#000000" font-family="sans-serif" font-size="12" lengthAdjust="spacing" textLength="80" x="210" y="180.7715">exit 3 silently</text><ellipse cx="252" cy="231.1094" fill="none" rx="11" ry="11" style="stroke:#222222;stroke-width:1.0;"/><ellipse cx="252" cy="231.1094" fill="#222222" rx="6" ry="6" style="stroke:#111111;stroke-width:1.0;"/><rect fill="#CCCCFF" height="75.875" rx="12.5" ry="12.5" style="stroke:#181818;stroke-width:0.5;" width="199" x="386" y="111.2188"/><text fill="#000000" font-family="sans-serif" font-size="12" lengthAdjust="spacing" textLength="157" x="396" y="132.3574">Get the "git ls-tree" of the</text><text fill="#000000" font-family="sans-serif" font-size="12" lengthAdjust="spacing" textLength="179" x="396" y="146.3262">"$SKIP_IF_TREE_OK_IN_PAST"</text><text fill="#000000" font-family="sans-serif" font-size="12" lengthAdjust="spacing" textLength="149" x="396" y="160.2949">files of the current HEAD</text><text fill="#000000" font-family="sans-serif" font-size="12" lengthAdjust="spacing" textLength="136" x="400" y="174.2637">=HEAD_PARTIAL_TREE</text><rect fill="#FFCCCC" height="47.9375" rx="12.5" ry="12.5" style="stroke:#181818;stroke-width:0.5;" width="245" x="363" y="213.6016"/><text fill="#000000" font-family="sans-serif" font-size="12" lengthAdjust="spacing" textLength="225" x="373" y="234.7402">Get last successful jobs of the project</text><text fill="#000000" font-family="sans-serif" font-size="12" lengthAdjust="spacing" textLength="114" x="373" y="248.709">from the Gitlab API</text><rect fill="#FFCCCC" height="33.9688" rx="12.5" ry="12.5" style="stroke:#181818;stroke-width:0.5;" width="257" x="357" y="281.5391"/><text fill="#000000" font-family="sans-serif" font-size="12" lengthAdjust="spacing" textLength="237" x="367" y="302.6777">Filter jobs : keep current job name only</text><rect fill="#CCCCFF" height="75.875" rx="12.5" ry="12.5" style="stroke:#181818;stroke-width:0.5;" width="209" x="381" y="405.6323"/><text fill="#000000" font-family="sans-serif" font-size="12" lengthAdjust="spacing" textLength="157" x="391" y="426.771">Get the "git ls-tree" of the</text><text fill="#000000" font-family="sans-serif" font-size="12" lengthAdjust="spacing" textLength="179" x="391" y="440.7397">"$SKIP_IF_TREE_OK_IN_PAST"</text><text fill="#000000" font-family="sans-serif" font-size="12" lengthAdjust="spacing" textLength="189" x="391" y="454.7085">files of the checked job commit</text><text fill="#000000" font-family="sans-serif" font-size="12" lengthAdjust="spacing" textLength="123" x="395" y="468.6772">=JOB_PARTIAL_TREE</text><rect fill="#98FB98" height="33.9688" rx="12.5" ry="12.5" style="stroke:#181818;stroke-width:0.5;" width="235" x="368" y="602.7378"/><text fill="#000000" font-family="sans-serif" font-size="12" lengthAdjust="spacing" textLength="215" x="378" y="623.8765">Extract the artifact of the found job</text><rect fill="#98FB98" height="47.9375" rx="12.5" ry="12.5" style="stroke:#181818;stroke-width:0.5;" width="200" x="385.5" y="656.7065"/><text fill="#000000" font-family="sans-serif" font-size="12" lengthAdjust="spacing" textLength="180" x="395.5" y="677.8452">Get the trace of the found job</text><text fill="#000000" font-family="sans-serif" font-size="12" lengthAdjust="spacing" textLength="179" x="395.5" y="691.814">to log the oldest ancestor link</text><rect fill="#98FB98" height="61.9063" rx="12.5" ry="12.5" style="stroke:#181818;stroke-width:0.5;" width="157" x="407" y="724.644"/><text fill="#000000" font-family="sans-serif" font-size="12" lengthAdjust="spacing" textLength="79" x="417" y="745.7827">&#9989; job found :</text><text fill="#000000" font-family="sans-serif" font-size="12" lengthAdjust="spacing" textLength="137" x="417" y="759.7515">write true in ci-skip file</text><text fill="#000000" font-family="sans-serif" font-size="12" lengthAdjust="spacing" textLength="124" x="417" y="773.7202">and exit with code 0</text><ellipse cx="485.5" cy="817.5503" fill="none" rx="11" ry="11" style="stroke:#222222;stroke-width:1.0;"/><ellipse cx="485.5" cy="817.5503" fill="#222222" rx="6" ry="6" style="stroke:#111111;stroke-width:1.0;"/><polygon fill="#FFCC88" points="390,501.5073,581,501.5073,593,539.9214,581,578.3354,390,578.3354,378,539.9214,390,501.5073" style="stroke:#181818;stroke-width:0.5;"/><text fill="#000000" font-family="sans-serif" font-size="11" lengthAdjust="spacing" textLength="20" x="489.5" y="588.5459">yes</text><text fill="#000000" font-family="sans-serif" font-size="11" lengthAdjust="spacing" textLength="4" x="390" y="511.7178">&#160;</text><text fill="#000000" font-family="sans-serif" font-size="11" lengthAdjust="spacing" textLength="156" x="398" y="524.5225">this partial tree is equals to</text><text fill="#000000" font-family="sans-serif" font-size="11" lengthAdjust="spacing" textLength="175" x="398" y="537.3271">the current HEAD partial tree ?</text><text fill="#000000" font-family="sans-serif" font-size="11" lengthAdjust="spacing" textLength="119" x="406" y="550.1318">HEAD_PARTIAL_TREE</text><text fill="#000000" font-family="sans-serif" font-size="11" lengthAdjust="spacing" textLength="140" x="422" y="562.9365">== JOB_PARTIAL_TREE ?</text><text fill="#000000" font-family="sans-serif" font-size="11" lengthAdjust="spacing" textLength="4" x="390" y="575.7412">&#160;</text><text fill="#000000" font-family="sans-serif" font-size="11" lengthAdjust="spacing" textLength="14" x="593" y="537.3271">no</text><polygon fill="#FFCC88" points="382,335.5078,589,335.5078,601,354.7148,589,373.9219,382,373.9219,370,354.7148,382,335.5078" style="stroke:#181818;stroke-width:0.5;"/><text fill="#000000" font-family="sans-serif" font-size="11" lengthAdjust="spacing" textLength="20" x="489.5" y="384.1323">yes</text><text fill="#000000" font-family="sans-serif" font-size="11" lengthAdjust="spacing" textLength="4" x="382" y="345.7183">&#160;</text><text fill="#000000" font-family="sans-serif" font-size="11" lengthAdjust="spacing" textLength="191" x="390" y="358.5229">There are still other jobs to check</text><text fill="#000000" font-family="sans-serif" font-size="11" lengthAdjust="spacing" textLength="4" x="382" y="371.3276">&#160;</text><text fill="#000000" font-family="sans-serif" font-size="11" lengthAdjust="spacing" textLength="14" x="356" y="352.1206">no</text><rect fill="#FFFF00" height="61.9063" rx="12.5" ry="12.5" style="stroke:#181818;stroke-width:0.5;" width="159" x="406" y="892.5503"/><text fill="#000000" font-family="sans-serif" font-size="12" lengthAdjust="spacing" textLength="102" x="416" y="913.689">&#10060; job not found :</text><text fill="#000000" font-family="sans-serif" font-size="12" lengthAdjust="spacing" textLength="139" x="416" y="927.6577">write false in ci-skip file</text><text fill="#000000" font-family="sans-serif" font-size="12" lengthAdjust="spacing" textLength="124" x="416" y="941.6265">and exit with code 1</text><ellipse cx="485.5" cy="985.4565" fill="none" rx="11" ry="11" style="stroke:#222222;stroke-width:1.0;"/><ellipse cx="485.5" cy="985.4565" fill="#222222" rx="6" ry="6" style="stroke:#111111;stroke-width:1.0;"/><line style="stroke:#181818;stroke-width:1.0;" x1="63" x2="63" y1="193.6016" y2="220.1094"/><polygon fill="#181818" points="59,210.1094,63,220.1094,67,210.1094,63,214.1094" style="stroke:#181818;stroke-width:1.0;"/><line style="stroke:#181818;stroke-width:1.0;" x1="252" x2="252" y1="193.6016" y2="220.1094"/><polygon fill="#181818" points="248,210.1094,252,220.1094,256,210.1094,252,214.1094" style="stroke:#181818;stroke-width:1.0;"/><line style="stroke:#181818;stroke-width:1.0;" x1="73" x2="63" y1="130.4258" y2="130.4258"/><line style="stroke:#181818;stroke-width:1.0;" x1="63" x2="63" y1="130.4258" y2="159.6328"/><polygon fill="#181818" points="59,149.6328,63,159.6328,67,149.6328,63,153.6328" style="stroke:#181818;stroke-width:1.0;"/><line style="stroke:#181818;stroke-width:1.0;" x1="242" x2="252" y1="130.4258" y2="130.4258"/><line style="stroke:#181818;stroke-width:1.0;" x1="252" x2="252" y1="130.4258" y2="159.6328"/><polygon fill="#181818" points="248,149.6328,252,159.6328,256,149.6328,252,153.6328" style="stroke:#181818;stroke-width:1.0;"/><line style="stroke:#181818;stroke-width:1.0;" x1="485.5" x2="485.5" y1="187.0938" y2="213.6016"/><polygon fill="#181818" points="481.5,203.6016,485.5,213.6016,489.5,203.6016,485.5,207.6016" style="stroke:#181818;stroke-width:1.0;"/><line style="stroke:#181818;stroke-width:1.0;" x1="485.5" x2="485.5" y1="261.5391" y2="281.5391"/><polygon fill="#181818" points="481.5,271.5391,485.5,281.5391,489.5,271.5391,485.5,275.5391" style="stroke:#181818;stroke-width:1.0;"/><line style="stroke:#181818;stroke-width:1.0;" x1="485.5" x2="485.5" y1="636.7065" y2="656.7065"/><polygon fill="#181818" points="481.5,646.7065,485.5,656.7065,489.5,646.7065,485.5,650.7065" style="stroke:#181818;stroke-width:1.0;"/><line style="stroke:#181818;stroke-width:1.0;" x1="485.5" x2="485.5" y1="704.644" y2="724.644"/><polygon fill="#181818" points="481.5,714.644,485.5,724.644,489.5,714.644,485.5,718.644" style="stroke:#181818;stroke-width:1.0;"/><line style="stroke:#181818;stroke-width:1.0;" x1="485.5" x2="485.5" y1="786.5503" y2="806.5503"/><polygon fill="#181818" points="481.5,796.5503,485.5,806.5503,489.5,796.5503,485.5,800.5503" style="stroke:#181818;stroke-width:1.0;"/><line style="stroke:#181818;stroke-width:1.0;" x1="485.5" x2="485.5" y1="578.3354" y2="602.7378"/><polygon fill="#181818" points="481.5,592.7378,485.5,602.7378,489.5,592.7378,485.5,596.7378" style="stroke:#181818;stroke-width:1.0;"/><line style="stroke:#181818;stroke-width:1.0;" x1="593" x2="637" y1="539.9214" y2="539.9214"/><line style="stroke:#181818;stroke-width:1.0;" x1="637" x2="637" y1="354.7148" y2="539.9214"/><line style="stroke:#181818;stroke-width:1.0;" x1="637" x2="601" y1="354.7148" y2="354.7148"/><polygon fill="#181818" points="611,350.7148,601,354.7148,611,358.7148,607,354.7148" style="stroke:#181818;stroke-width:1.0;"/><line style="stroke:#181818;stroke-width:1.0;" x1="485.5" x2="485.5" y1="481.5073" y2="501.5073"/><polygon fill="#181818" points="481.5,491.5073,485.5,501.5073,489.5,491.5073,485.5,495.5073" style="stroke:#181818;stroke-width:1.0;"/><line style="stroke:#181818;stroke-width:1.0;" x1="485.5" x2="485.5" y1="373.9219" y2="405.6323"/><polygon fill="#181818" points="481.5,395.6323,485.5,405.6323,489.5,395.6323,485.5,399.6323" style="stroke:#181818;stroke-width:1.0;"/><line style="stroke:#181818;stroke-width:1.0;" x1="370" x2="346" y1="354.7148" y2="354.7148"/><polygon fill="#181818" points="342,621.2866,346,631.2866,350,621.2866,346,625.2866" style="stroke:#181818;stroke-width:1.0;"/><line style="stroke:#181818;stroke-width:1.0;" x1="346" x2="346" y1="354.7148" y2="872.5503"/><line style="stroke:#181818;stroke-width:1.0;" x1="346" x2="485.5" y1="872.5503" y2="872.5503"/><line style="stroke:#181818;stroke-width:1.0;" x1="485.5" x2="485.5" y1="872.5503" y2="892.5503"/><polygon fill="#181818" points="481.5,882.5503,485.5,892.5503,489.5,882.5503,485.5,886.5503" style="stroke:#181818;stroke-width:1.0;"/><line style="stroke:#181818;stroke-width:1.0;" x1="485.5" x2="485.5" y1="315.5078" y2="335.5078"/><polygon fill="#181818" points="481.5,325.5078,485.5,335.5078,489.5,325.5078,485.5,329.5078" style="stroke:#181818;stroke-width:1.0;"/><line style="stroke:#181818;stroke-width:1.0;" x1="485.5" x2="485.5" y1="954.4565" y2="974.4565"/><polygon fill="#181818" points="481.5,964.4565,485.5,974.4565,489.5,964.4565,485.5,968.4565" style="stroke:#181818;stroke-width:1.0;"/><line style="stroke:#181818;stroke-width:1.0;" x1="188.5" x2="157.5" y1="75.6094" y2="75.6094"/><line style="stroke:#181818;stroke-width:1.0;" x1="157.5" x2="157.5" y1="75.6094" y2="111.2188"/><polygon fill="#181818" points="153.5,101.2188,157.5,111.2188,161.5,101.2188,157.5,105.2188" style="stroke:#181818;stroke-width:1.0;"/><line style="stroke:#181818;stroke-width:1.0;" x1="454.5" x2="485.5" y1="75.6094" y2="75.6094"/><line style="stroke:#181818;stroke-width:1.0;" x1="485.5" x2="485.5" y1="75.6094" y2="111.2188"/><polygon fill="#181818" points="481.5,101.2188,485.5,111.2188,489.5,101.2188,485.5,105.2188" style="stroke:#181818;stroke-width:1.0;"/><line style="stroke:#181818;stroke-width:1.0;" x1="321.5" x2="321.5" y1="30" y2="50"/><polygon fill="#181818" points="317.5,40,321.5,50,325.5,40,321.5,44" style="stroke:#181818;stroke-width:1.0;"/><!--SRC=[hLDDJzj04BtxLun23-I0IjKBIg0eb41Jge8WHqlHiXudIpQxxkwugLLnxAq_eVrp_9BEh0qKmg67Mafihz_Ccu_tzYCr5jzbIfFvQgWvDceUr0g-Pm25KIllYlGCSAJqSXvyxOhttle0MsMfzTuUVxlDRhFzrrsYB98Ab6McXEtS0KmN275fgXrjOA4YA1jG5GrS8phGVbLP92m067i0n61jTWGFfR48-Cr4Yd2OkpwO2DiDnhwWNFOoW_QEq95W3oLd6qMXnYuCOAjI5kU1wGUSdM0N8ZCviWqC-NCaNsLe8y9sgVZMbv06hVNh5l_s9RmhJ9brOSxtiotDLraEJf5IKxqvHzguGypR0r_AOUvwhwxE9XUpoSbiUZaUpyxFPfFFiulHrRINEsa_TaZGTGZIreVnw5W69NS6NaudeqyfTfYbTMYT6AsA1B7M6cCiQmit_leXLHNy3MfYWk1NwUJKa5NNCBgOF6OvCPOmj843M29M3pNm6JYrGl3EDiDilP0ztIyY82Z-HJBMWkViNGxoe1UebuyxaKsAhlxtf8I5zIHLihfMXcHU7y-FdesBcU_rGmkkfsBH6cL1QAK-_5BpzgNk5l9q1q_XIMbYaOsrjCTo7Hp0yo9UKdN2_gNGyJSARCrKW52MyjArMeeNfT7XHjZzC2KOD_2vuxQidwTJRmjajIZ7OY6sjJLkkPdmxjUFDD8sno1tws18yjSyBVV4ixbJ34bMMHjQy1OAXDqkPN8Btn-T8Y_9FVpVQIaPgBFStU-VhU8yFITFzlmdzZV3B17_0G00]--></g></svg>